<svg width="74" height="140" viewBox="0 0 74 140" fill="none" xmlns="http://www.w3.org/2000/svg">
<g clip-path="url(#clip0)">
<path d="M2.71558 132.4C2.71558 132.4 19.6881 147.972 38.6972 132.4V25.4265C38.6972 25.4265 24.1009 37.2749 3.05503 25.4265C3.05503 45.0609 2.71558 132.4 2.71558 132.4Z" stroke="#CD7949" stroke-width="4" stroke-miterlimit="10"/>
<path d="M2.71558 122.244C2.71558 122.244 21.6127 137.139 38.6395 122.244" stroke="#CD7949" stroke-width="4" stroke-miterlimit="10"/>
<path d="M2.71559 25.088L0.678894 24.0724V8.50033C0.678894 8.50033 18.6697 -9.10292 40.3945 8.50033V23.7339L38.3578 25.7651" stroke="#CD7949" stroke-width="4" stroke-miterlimit="10"/>
<path d="M1.01837 8.50034C1.01837 8.50034 18.6697 26.7806 40.3945 8.50034" stroke="#CD7949" stroke-width="4" stroke-miterlimit="10"/>
<path d="M40.3945 17.302C40.3945 17.302 24.6101 32.197 0.594055 17.302" stroke="#CD7949" stroke-width="4" stroke-miterlimit="10"/>
<path d="M45.6797 128.714C45.6797 128.714 58.1307 140.139 72.0753 128.714V50.237C72.0753 50.237 61.3691 58.9303 45.9377 50.237C45.9275 64.6412 45.6797 128.714 45.6797 128.714Z" stroke="#CD7949" stroke-width="4" stroke-miterlimit="10"/>
<path d="M45.6797 49.9898L44.1862 49.2417V37.8199C44.1862 37.8199 57.384 24.9052 73.3211 37.8199V48.9912L71.8275 50.4807" stroke="#CD7949" stroke-width="4" stroke-miterlimit="10"/>
<path d="M44.434 37.8199C44.434 37.8199 57.384 51.2288 73.3211 37.8199" stroke="#CD7949" stroke-width="4" stroke-miterlimit="10"/>
</g>
<defs>
<clipPath id="clip0">
<rect width="74" height="140" fill="white"/>
</clipPath>
</defs>
</svg>
