<svg width="77" height="152" viewBox="0 0 77 152" fill="none" xmlns="http://www.w3.org/2000/svg">
<g clip-path="url(#clip0)">
<path d="M76.3063 8V145.739H62.4324V150.261H16.9955V146.435H0.693695V8.34783L76.3063 8Z" stroke="#CD7949" stroke-width="4" stroke-miterlimit="10"/>
<path d="M16.9955 146.087V101.565H62.4324V146.783" stroke="#CD7949" stroke-width="4" stroke-miterlimit="10"/>
<path d="M5.8964 146.783H2.77478V151.304H5.8964V146.783Z" stroke="#CD7949" stroke-width="4" stroke-miterlimit="10"/>
<path d="M51.3333 135.652H28.4414V146.435H51.3333V135.652Z" stroke="#CD7949" stroke-width="4" stroke-miterlimit="10"/>
<path d="M41.5977 141.333H38.0575V143.111H41.5977V141.333Z" stroke="#CD7949" stroke-width="4" stroke-miterlimit="10"/>
<path d="M63.473 13.2174H13.8739V44.8696H63.473V13.2174Z" stroke="#CD7949" stroke-width="4" stroke-miterlimit="10"/>
<path d="M63.473 44.8696H13.8739V78.9565H63.473V44.8696Z" stroke="#CD7949" stroke-width="4" stroke-miterlimit="10"/>
<path d="M50.2928 0.695648H26.7072V8.34782H50.2928V0.695648Z" stroke="#CD7949" stroke-width="4" stroke-miterlimit="10"/>
<path d="M12.1396 6.26086H8.67117V7.99999H12.1396V6.26086Z" stroke="#CD7949" stroke-width="4" stroke-miterlimit="10"/>
<path d="M70.0631 6.26086H66.5946V7.99999H70.0631V6.26086Z" stroke="#CD7949" stroke-width="4" stroke-miterlimit="10"/>
<path d="M74.3448 145.778H70.8046V151.111H74.3448V145.778Z" stroke="#CD7949" stroke-width="4" stroke-miterlimit="10"/>
<path d="M59.3108 59.1304H58.964V66.7826H59.3108V59.1304Z" stroke="#CD7949" stroke-width="4" stroke-miterlimit="10"/>
<path d="M67.2883 27.4783H63.8198V32.3478H67.2883V27.4783Z" stroke="#CD7949" stroke-width="4" stroke-miterlimit="10"/>
</g>
<defs>
<clipPath id="clip0">
<rect width="77" height="152" fill="white"/>
</clipPath>
</defs>
</svg>
